<svg id="Layer_1" data-name="Layer 1" xmlns="http://www.w3.org/2000/svg" viewBox="0 0 47.64 41.5"><defs><style>.cls-1{fill:#a60200;}.cls-2{fill:#951300;}.cls-3{fill:#fff;}.cls-4{fill:#e8650a;}.cls-5{fill:#b72900;}.cls-6{fill:#f0910f;}.cls-7{fill:#de3c0b;}</style></defs><title>Logo</title><path class="cls-1" d="M22.68,16.55a12.48,12.48,0,0,0-1.9,5.7l-.64.31c-1.41.67-1.54-.54-1.54-.54v-.91a2.82,2.82,0,0,1,.41-1.5A8.68,8.68,0,0,1,22.68,16.55Z" transform="translate(-0.35 -0.36)"/><path class="cls-2" d="M41,15.35c-5.48-1.41-13.51,3.51-13.51,3.51s-4.7,2.4-6.74,3.39a12.48,12.48,0,0,1,1.9-5.7,14.34,14.34,0,0,1,1.82-.73c1.75-.55,4.6-2.86,5.17-4.86.21-.76.16-1.21-.06-1.47.73-6-7.19-8.87-7.87-9.1A20.73,20.73,0,0,1,41,15.35Z" transform="translate(-0.35 -0.36)"/><path class="cls-3" d="M39.8,30a26.72,26.72,0,0,1-2.62,4.16h0a.59.59,0,0,0-.17-.79A12,12,0,0,1,32.14,25c0-.23,0-.41,0-.5A13.33,13.33,0,0,0,37,30.66S38.19,31.92,39.8,30Z" transform="translate(-0.35 -0.36)"/><path class="cls-4" d="M37.17,34.17l0,.06a20.64,20.64,0,0,1-16.9,7.61c-.49,0-1-.07-1.45-.13-1.56-.61-.65-4.3-.65-4.3,1-4.77,7.32-12.75,8.66-14.41a46.13,46.13,0,0,1,4.6-3.36,11,11,0,0,0,.71,4.83c0,.09,0,.27,0,.5A12,12,0,0,0,37,33.38.59.59,0,0,1,37.17,34.17Z" transform="translate(-0.35 -0.36)"/><path class="cls-5" d="M29.61,9.49c-.36-.43-1.15-.32-1.92-.15-1.17.26-4.79-.05-5.29-.68-.11-.15-.8-1.09-.93-1.19a2.28,2.28,0,0,0-1.89-.41,7.59,7.59,0,0,1-1.44.17C17,7.25,16.23,7.29,16,6c-.08-.44-.27-1.28-.3-1.78A.3.3,0,0,0,15.32,4c-1.71.5-9,3.18-11,12.83a8.9,8.9,0,0,0-.18,2.3c.09,2,.64,5.85,3.38,8A11,11,0,0,1,1.11,15.54,20.76,20.76,0,0,1,21.1.36c.22,0,.43,0,.64,0C22.42.62,30.34,3.46,29.61,9.49Z" transform="translate(-0.35 -0.36)"/><path class="cls-6" d="M48,25.33a.4.4,0,0,1-.46.43,7.56,7.56,0,0,0-6.42,2,4.78,4.78,0,0,0-.94,1.48c-.11.26-.24.51-.37.76-1.61,1.9-2.84.64-2.84.64a13.33,13.33,0,0,1-4.85-6.19,11,11,0,0,1-.71-4.83c3.16-2,7.1-3.8,10-2.72C46.39,18.75,47.78,22.34,48,25.33Z" transform="translate(-0.35 -0.36)"/><path class="cls-7" d="M18.79,41.71A20.72,20.72,0,0,1,1.11,15.54,11,11,0,0,0,7.48,27.11c2.6,2.07,7.17,2.65,15.2-1.18a9.22,9.22,0,0,0,1.39-.82c.57-.4,1.4-1,2.2-1.67L26.8,23c-1.34,1.66-7.65,9.64-8.66,14.41C18.14,37.41,17.23,41.1,18.79,41.71Z" transform="translate(-0.35 -0.36)"/><path class="cls-3" d="M41.43,16.92c-2.93-1.08-6.87.72-10,2.72A46.13,46.13,0,0,0,26.8,23l-.53.44c-.8.66-1.63,1.27-2.2,1.67a9.22,9.22,0,0,1-1.39.82c-8,3.83-12.6,3.25-15.2,1.18s-3.29-6-3.38-8a8.9,8.9,0,0,1,.18-2.3c2-9.65,9.33-12.33,11-12.83a.3.3,0,0,1,.38.27c0,.5.22,1.34.3,1.78.23,1.29,1,1.25,2.14,1.23a7.59,7.59,0,0,0,1.44-.17,2.28,2.28,0,0,1,1.89.41c.13.1.82,1,.93,1.19.5.63,4.12.94,5.29.68.77-.17,1.56-.28,1.92.15.22.26.27.71.06,1.47-.57,2-3.42,4.31-5.17,4.86a14.34,14.34,0,0,0-1.82.73A8.68,8.68,0,0,0,19,19.61a2.82,2.82,0,0,0-.41,1.5V22s.13,1.21,1.54.54l.64-.31c2-1,6.74-3.39,6.74-3.39s8-4.92,13.51-3.51C41.18,15.87,41.32,16.39,41.43,16.92Z" transform="translate(-0.35 -0.36)"/><path class="cls-5" d="M21.1,9.23a2.87,2.87,0,0,1-.42.31,2.73,2.73,0,0,1-1.16.4,3,3,0,0,1-2.62-.46s.37-.37.58-.62a1.89,1.89,0,0,1,1.24-.62,2.15,2.15,0,0,1,.77.09,3.45,3.45,0,0,1,.75.34l.28.19S21,9.18,21.1,9.23Z" transform="translate(-0.35 -0.36)"/></svg>