<svg
    width="18"
    height="17"
    viewBox="0 0 18 17"
    fill="none"
    xmlns="http://www.w3.org/2000/svg"
>
    <path
        fillRule="evenodd"
        clipRule="evenodd"
        d="M12 1.3125V2.25H15.9375C16.0867 2.25 16.2298 2.30926 16.3352 2.41475C16.4407 2.52024 16.5 2.66332 16.5 2.8125C16.5 2.96168 16.4407 3.10476 16.3352 3.21025C16.2298 3.31574 16.0867 3.375 15.9375 3.375H2.0625C1.91332 3.375 1.77024 3.31574 1.66475 3.21025C1.55926 3.10476 1.5 2.96168 1.5 2.8125C1.5 2.66332 1.55926 2.52024 1.66475 2.41475C1.77024 2.30926 1.91332 2.25 2.0625 2.25H6V1.3125C6 0.588 6.588 0 7.3125 0H10.6875C11.412 0 12 0.588 12 1.3125ZM7.125 1.3125C7.125 1.26277 7.14475 1.21508 7.17992 1.17992C7.21508 1.14475 7.26277 1.125 7.3125 1.125H10.6875C10.7372 1.125 10.7849 1.14475 10.8201 1.17992C10.8552 1.21508 10.875 1.26277 10.875 1.3125V2.25H7.125V1.3125Z"
        fill="#2E0700"
    />
    <path
        d="M3.74775 4.63351C3.74134 4.55946 3.72031 4.48741 3.68589 4.42153C3.65146 4.35565 3.60432 4.29725 3.54719 4.2497C3.49006 4.20214 3.42407 4.16639 3.35303 4.14449C3.282 4.1226 3.20733 4.115 3.13334 4.12214C3.05936 4.12927 2.98752 4.151 2.92198 4.18607C2.85644 4.22114 2.7985 4.26885 2.75151 4.32644C2.70452 4.38403 2.66941 4.45037 2.64821 4.52161C2.62701 4.59286 2.62014 4.6676 2.628 4.74151L3.687 15.69C3.71867 16.0145 3.87001 16.3156 4.11152 16.5347C4.35304 16.7537 4.66744 16.8751 4.9935 16.875H13.0065C13.3327 16.875 13.6472 16.7536 13.8887 16.5344C14.1302 16.3152 14.2815 16.0139 14.313 15.6893L15.3728 4.74151C15.3871 4.59292 15.3418 4.44473 15.2468 4.32954C15.1519 4.21434 15.0151 4.14158 14.8665 4.12726C14.7179 4.11294 14.5697 4.15823 14.4545 4.25317C14.3393 4.34811 14.2666 4.48492 14.2523 4.63351L13.1933 15.5805C13.1888 15.6269 13.1672 15.67 13.1326 15.7013C13.0981 15.7327 13.0531 15.75 13.0065 15.75H4.9935C4.94687 15.75 4.9019 15.7327 4.86737 15.7013C4.83284 15.67 4.81123 15.6269 4.80675 15.5805L3.74775 4.63351Z"
        fill="#2E0700"
    />
    <path
        d="M6.9045 5.62576C6.97828 5.6214 7.05219 5.63162 7.12202 5.65584C7.19184 5.68005 7.25621 5.71779 7.31145 5.76689C7.36668 5.816 7.4117 5.87551 7.44392 5.94202C7.47615 6.00853 7.49495 6.08073 7.49925 6.15451L7.87425 12.5295C7.88301 12.6786 7.83218 12.8251 7.73295 12.9367C7.63372 13.0483 7.49421 13.1159 7.34513 13.1246C7.19604 13.1334 7.04959 13.0826 6.93798 12.9833C6.82637 12.8841 6.75876 12.7446 6.75 12.5955L6.375 6.22051C6.37064 6.14674 6.38086 6.07282 6.40508 6.003C6.42929 5.93317 6.46703 5.8688 6.51614 5.81357C6.56524 5.75834 6.62475 5.71332 6.69126 5.6811C6.75777 5.64887 6.82997 5.63007 6.90375 5.62576H6.9045ZM11.6243 6.22051C11.633 6.07143 11.5822 5.92497 11.4829 5.81337C11.3837 5.70176 11.2442 5.63414 11.0951 5.62539C10.946 5.61664 10.7996 5.66747 10.688 5.7667C10.5764 5.86593 10.5088 6.00543 10.5 6.15451L10.125 12.5295C10.1163 12.6785 10.167 12.8249 10.2662 12.9364C10.3654 13.0479 10.5048 13.1155 10.6538 13.1243C10.8027 13.133 10.9491 13.0822 11.0606 12.9831C11.1722 12.8839 11.2398 12.7445 11.2485 12.5955L11.6235 6.22051H11.6243Z"
        fill="#2E0700"
    />
</svg>